<mxfile host="Electron" agent="Mozilla/5.0 (Windows NT 10.0; Win64; x64) AppleWebKit/537.36 (KHTML, like Gecko) draw.io/25.0.2 Chrome/128.0.6613.186 Electron/32.2.5 Safari/537.36" version="25.0.2">
  <diagram id="MxbIoY4iiKl5vORPyIVy" name="项目架构图">
    <mxGraphModel dx="922" dy="532" grid="1" gridSize="10" guides="1" tooltips="1" connect="1" arrows="1" fold="1" page="1" pageScale="1" pageWidth="10000" pageHeight="10000" math="0" shadow="0">
      <root>
        <mxCell id="0" />
        <mxCell id="1" parent="0" />
        <mxCell id="6" value="IServices" style="shape=folder;fontStyle=1;spacingTop=10;tabWidth=40;tabHeight=14;tabPosition=left;html=1;" parent="1" vertex="1">
          <mxGeometry x="9030" y="3002" width="400" height="280" as="geometry" />
        </mxCell>
        <mxCell id="7" value="Services" style="shape=folder;fontStyle=1;spacingTop=10;tabWidth=40;tabHeight=14;tabPosition=left;html=1;" parent="1" vertex="1">
          <mxGeometry x="9020" y="3550" width="400" height="280" as="geometry" />
        </mxCell>
        <mxCell id="8" value="ViewModels" style="shape=folder;fontStyle=1;spacingTop=10;tabWidth=40;tabHeight=14;tabPosition=left;html=1;" parent="1" vertex="1">
          <mxGeometry x="6710" y="2790" width="370" height="120" as="geometry" />
        </mxCell>
        <mxCell id="9" value="Views" style="shape=folder;fontStyle=1;spacingTop=10;tabWidth=40;tabHeight=14;tabPosition=left;html=1;" parent="1" vertex="1">
          <mxGeometry x="6790" y="2530" width="280" height="120" as="geometry" />
        </mxCell>
        <mxCell id="10" value="Data" style="shape=folder;fontStyle=1;spacingTop=10;tabWidth=40;tabHeight=14;tabPosition=left;html=1;" parent="1" vertex="1">
          <mxGeometry x="9150" y="4000" width="280" height="120" as="geometry" />
        </mxCell>
        <mxCell id="11" value="Entities" style="shape=folder;fontStyle=1;spacingTop=10;tabWidth=40;tabHeight=14;tabPosition=left;html=1;" parent="1" vertex="1">
          <mxGeometry x="9150" y="4230" width="280" height="120" as="geometry" />
        </mxCell>
        <mxCell id="18" style="edgeStyle=orthogonalEdgeStyle;rounded=0;orthogonalLoop=1;jettySize=auto;html=1;exitX=0.525;exitY=1.007;exitDx=0;exitDy=0;entryX=0;entryY=0;entryDx=220;entryDy=14;entryPerimeter=0;exitPerimeter=0;" parent="1" source="6" target="7" edge="1">
          <mxGeometry relative="1" as="geometry" />
        </mxCell>
        <mxCell id="19" value="实现" style="edgeLabel;html=1;align=center;verticalAlign=middle;resizable=0;points=[];" parent="18" vertex="1" connectable="0">
          <mxGeometry x="-0.1429" y="1" relative="1" as="geometry">
            <mxPoint as="offset" />
          </mxGeometry>
        </mxCell>
        <mxCell id="20" style="edgeStyle=orthogonalEdgeStyle;rounded=0;orthogonalLoop=1;jettySize=auto;html=1;exitX=0.513;exitY=0.063;exitDx=0;exitDy=0;entryX=0.518;entryY=0.997;entryDx=0;entryDy=0;entryPerimeter=0;exitPerimeter=0;" parent="1" source="6" target="8" edge="1">
          <mxGeometry relative="1" as="geometry">
            <Array as="points">
              <mxPoint x="8455" y="3020" />
              <mxPoint x="6945" y="3020" />
            </Array>
          </mxGeometry>
        </mxCell>
        <mxCell id="21" value="使用" style="edgeLabel;html=1;align=center;verticalAlign=middle;resizable=0;points=[];" parent="20" vertex="1" connectable="0">
          <mxGeometry x="-0.2615" y="-3" relative="1" as="geometry">
            <mxPoint as="offset" />
          </mxGeometry>
        </mxCell>
        <mxCell id="22" style="edgeStyle=orthogonalEdgeStyle;rounded=0;orthogonalLoop=1;jettySize=auto;html=1;exitX=0.5;exitY=1;exitDx=0;exitDy=0;entryX=0;entryY=0;entryDx=70;entryDy=14;entryPerimeter=0;" parent="1" source="7" target="10" edge="1">
          <mxGeometry relative="1" as="geometry" />
        </mxCell>
        <mxCell id="23" value="访问" style="edgeLabel;html=1;align=center;verticalAlign=middle;resizable=0;points=[];" parent="22" vertex="1" connectable="0">
          <mxGeometry x="-0.125" y="-1" relative="1" as="geometry">
            <mxPoint as="offset" />
          </mxGeometry>
        </mxCell>
        <mxCell id="24" style="edgeStyle=orthogonalEdgeStyle;rounded=0;orthogonalLoop=1;jettySize=auto;html=1;" parent="1" edge="1">
          <mxGeometry relative="1" as="geometry">
            <mxPoint x="6940" y="2800" as="sourcePoint" />
            <mxPoint x="6940" y="2650" as="targetPoint" />
            <Array as="points">
              <mxPoint x="6940" y="2650" />
            </Array>
          </mxGeometry>
        </mxCell>
        <mxCell id="25" value="绑定" style="edgeLabel;html=1;align=center;verticalAlign=middle;resizable=0;points=[];" parent="24" vertex="1" connectable="0">
          <mxGeometry x="-0.2" y="-1" relative="1" as="geometry">
            <mxPoint as="offset" />
          </mxGeometry>
        </mxCell>
        <mxCell id="iT-1" value="&lt;p style=&quot;margin:0px;margin-top:4px;text-align:center;&quot;&gt;&lt;i&gt;&amp;lt;&amp;lt;Interface&amp;gt;&amp;gt;&lt;/i&gt;&lt;br&gt;&lt;b&gt;ITestTaskManager&lt;/b&gt;&lt;/p&gt;" style="verticalAlign=top;align=left;overflow=fill;fontSize=12;fontFamily=Helvetica;html=1;whiteSpace=wrap;" parent="1" vertex="1">
          <mxGeometry x="9050" y="3042" width="360" height="230" as="geometry" />
        </mxCell>
        <mxCell id="iT-2" value="+ CreateTestTasksAsync(channelMappings): Task&lt;IEnumerable&lt;string&gt;&gt; // 从通道映射集合创建测试任务，返回任务ID列表" style="text;strokeColor=none;fillColor=none;align=left;verticalAlign=top;spacingLeft=4;spacingRight=4;overflow=hidden;rotatable=0;points=[[0,0.5],[1,0.5]];portConstraint=eastwest;whiteSpace=wrap;html=1;" parent="1" vertex="1">
          <mxGeometry x="9050" y="3072" width="360" height="20" as="geometry" />
        </mxCell>
        <mxCell id="iT-3" value="+ ConfirmWiringCompleteAsync(batchInfo, autoStart, testMap): Task&lt;bool&gt; // 确认接线已完成，启用测试功能，可选自动开始测试" style="text;strokeColor=none;fillColor=none;align=left;verticalAlign=top;spacingLeft=4;spacingRight=4;overflow=hidden;rotatable=0;points=[[0,0.5],[1,0.5]];portConstraint=eastwest;whiteSpace=wrap;html=1;" parent="1" vertex="1">
          <mxGeometry x="9050" y="3092" width="360" height="20" as="geometry" />
        </mxCell>
        <mxCell id="iT-4" value="+ ShowTestProgressDialogAsync(isRetestMode, channelInfo): Task // 显示测试进度对话框，可选重测模式" style="text;strokeColor=none;fillColor=none;align=left;verticalAlign=top;spacingLeft=4;spacingRight=4;overflow=hidden;rotatable=0;points=[[0,0.5],[1,0.5]];portConstraint=eastwest;whiteSpace=wrap;html=1;" parent="1" vertex="1">
          <mxGeometry x="9050" y="3112" width="360" height="20" as="geometry" />
        </mxCell>
        <mxCell id="iT-5" value="+ StartAllTasksSerialAsync(): Task&lt;bool&gt; // 按顺序串行启动所有测试任务" style="text;strokeColor=none;fillColor=none;align=left;verticalAlign=top;spacingLeft=4;spacingRight=4;overflow=hidden;rotatable=0;points=[[0,0.5],[1,0.5]];portConstraint=eastwest;whiteSpace=wrap;html=1;" parent="1" vertex="1">
          <mxGeometry x="9050" y="3132" width="360" height="20" as="geometry" />
        </mxCell>
        <mxCell id="iT-6" value="+ StartAllTasksAsync(): Task&lt;bool&gt; // 并行启动所有测试任务" style="text;strokeColor=none;fillColor=none;align=left;verticalAlign=top;spacingLeft=4;spacingRight=4;overflow=hidden;rotatable=0;points=[[0,0.5],[1,0.5]];portConstraint=eastwest;whiteSpace=wrap;html=1;" parent="1" vertex="1">
          <mxGeometry x="9050" y="3152" width="360" height="20" as="geometry" />
        </mxCell>
        <mxCell id="iT-7" value="+ StopAllTasksAsync(): Task&lt;bool&gt; // 停止所有正在执行的测试任务" style="text;strokeColor=none;fillColor=none;align=left;verticalAlign=top;spacingLeft=4;spacingRight=4;overflow=hidden;rotatable=0;points=[[0,0.5],[1,0.5]];portConstraint=eastwest;whiteSpace=wrap;html=1;" parent="1" vertex="1">
          <mxGeometry x="9050" y="3172" width="360" height="20" as="geometry" />
        </mxCell>
        <mxCell id="iT-8" value="+ PauseAllTasksAsync(): Task&lt;bool&gt; // 暂停所有测试任务，保留当前状态" style="text;strokeColor=none;fillColor=none;align=left;verticalAlign=top;spacingLeft=4;spacingRight=4;overflow=hidden;rotatable=0;points=[[0,0.5],[1,0.5]];portConstraint=eastwest;whiteSpace=wrap;html=1;" parent="1" vertex="1">
          <mxGeometry x="9050" y="3192" width="360" height="20" as="geometry" />
        </mxCell>
        <mxCell id="iT-9" value="+ ResumeAllTasksAsync(): Task&lt;bool&gt; // 恢复所有暂停的测试任务" style="text;strokeColor=none;fillColor=none;align=left;verticalAlign=top;spacingLeft=4;spacingRight=4;overflow=hidden;rotatable=0;points=[[0,0.5],[1,0.5]];portConstraint=eastwest;whiteSpace=wrap;html=1;" parent="1" vertex="1">
          <mxGeometry x="9050" y="3212" width="360" height="20" as="geometry" />
        </mxCell>
        <mxCell id="iT-10" value="+ GetTaskById(taskId): TestTask // 根据任务ID获取测试任务实例" style="text;strokeColor=none;fillColor=none;align=left;verticalAlign=top;spacingLeft=4;spacingRight=4;overflow=hidden;rotatable=0;points=[[0,0.5],[1,0.5]];portConstraint=eastwest;whiteSpace=wrap;html=1;" parent="1" vertex="1">
          <mxGeometry x="9050" y="3232" width="360" height="20" as="geometry" />
        </mxCell>
        <mxCell id="iT-11" value="+ RetestChannelAsync(channelMapping): Task&lt;bool&gt; // 对指定通道进行重新测试" style="text;strokeColor=none;fillColor=none;align=left;verticalAlign=top;spacingLeft=4;spacingRight=4;overflow=hidden;rotatable=0;points=[[0,0.5],[1,0.5]];portConstraint=eastwest;whiteSpace=wrap;html=1;" parent="1" vertex="1">
          <mxGeometry x="9050" y="3252" width="360" height="20" as="geometry" />
        </mxCell>
        <mxCell id="sT-1" value="&lt;p style=&quot;margin:0px;margin-top:4px;text-align:center;&quot;&gt;&lt;b&gt;TestTaskManager&lt;/b&gt;&lt;/p&gt;" style="verticalAlign=top;align=left;overflow=fill;fontSize=12;fontFamily=Helvetica;html=1;whiteSpace=wrap;" parent="1" vertex="1">
          <mxGeometry x="9040" y="3590" width="360" height="230" as="geometry" />
        </mxCell>
        <mxCell id="sT-2" value="- _channelMappingService: IChannelMappingService // 通道映射服务，用于处理通道映射信息" style="text;strokeColor=none;fillColor=none;align=left;verticalAlign=top;spacingLeft=4;spacingRight=4;overflow=hidden;rotatable=0;points=[[0,0.5],[1,0.5]];portConstraint=eastwest;whiteSpace=wrap;html=1;" parent="1" vertex="1">
          <mxGeometry x="9040" y="3620" width="360" height="20" as="geometry" />
        </mxCell>
        <mxCell id="sT-3" value="- _testPlcCommunication: IPlcCommunication // 测试PLC通信接口，用于与测试设备通信" style="text;strokeColor=none;fillColor=none;align=left;verticalAlign=top;spacingLeft=4;spacingRight=4;overflow=hidden;rotatable=0;points=[[0,0.5],[1,0.5]];portConstraint=eastwest;whiteSpace=wrap;html=1;" parent="1" vertex="1">
          <mxGeometry x="9040" y="3640" width="360" height="20" as="geometry" />
        </mxCell>
        <mxCell id="sT-4" value="- _targetPlcCommunication: IPlcCommunication // 目标PLC通信接口，用于与被测设备通信" style="text;strokeColor=none;fillColor=none;align=left;verticalAlign=top;spacingLeft=4;spacingRight=4;overflow=hidden;rotatable=0;points=[[0,0.5],[1,0.5]];portConstraint=eastwest;whiteSpace=wrap;html=1;" parent="1" vertex="1">
          <mxGeometry x="9040" y="3660" width="360" height="20" as="geometry" />
        </mxCell>
        <mxCell id="sT-5" value="- _activeTasks: ConcurrentDictionary&lt;string, TestTask&gt; // 当前活跃的测试任务字典，按任务ID索引" style="text;strokeColor=none;fillColor=none;align=left;verticalAlign=top;spacingLeft=4;spacingRight=4;overflow=hidden;rotatable=0;points=[[0,0.5],[1,0.5]];portConstraint=eastwest;whiteSpace=wrap;html=1;" parent="1" vertex="1">
          <mxGeometry x="9040" y="3680" width="360" height="20" as="geometry" />
        </mxCell>
        <mxCell id="sT-6" value="+ CreateTestTasksAsync(): Task&lt;IEnumerable&lt;string&gt;&gt; // 创建测试任务集合，根据通道类型生成对应的测试任务" style="text;strokeColor=none;fillColor=none;align=left;verticalAlign=top;spacingLeft=4;spacingRight=4;overflow=hidden;rotatable=0;points=[[0,0.5],[1,0.5]];portConstraint=eastwest;whiteSpace=wrap;html=1;" parent="1" vertex="1">
          <mxGeometry x="9040" y="3700" width="360" height="20" as="geometry" />
        </mxCell>
        <mxCell id="sT-7" value="+ ExecuteSerialTestSequenceAsync(): Task // 执行串行测试序列，按顺序处理测试任务" style="text;strokeColor=none;fillColor=none;align=left;verticalAlign=top;spacingLeft=4;spacingRight=4;overflow=hidden;rotatable=0;points=[[0,0.5],[1,0.5]];portConstraint=eastwest;whiteSpace=wrap;html=1;" parent="1" vertex="1">
          <mxGeometry x="9040" y="3720" width="360" height="20" as="geometry" />
        </mxCell>
        <mxCell id="sT-8" value="+ EvaluateTestResults(): Task // 评估测试结果，统计测试通过率和失败情况" style="text;strokeColor=none;fillColor=none;align=left;verticalAlign=top;spacingLeft=4;spacingRight=4;overflow=hidden;rotatable=0;points=[[0,0.5],[1,0.5]];portConstraint=eastwest;whiteSpace=wrap;html=1;" parent="1" vertex="1">
          <mxGeometry x="9040" y="3740" width="360" height="20" as="geometry" />
        </mxCell>
        <mxCell id="sT-9" value="+ RetestChannelSerialAsync(): Task&lt;bool&gt; // 串行重新测试指定通道，按顺序执行测试流程" style="text;strokeColor=none;fillColor=none;align=left;verticalAlign=top;spacingLeft=4;spacingRight=4;overflow=hidden;rotatable=0;points=[[0,0.5],[1,0.5]];portConstraint=eastwest;whiteSpace=wrap;html=1;" parent="1" vertex="1">
          <mxGeometry x="9040" y="3760" width="360" height="20" as="geometry" />
        </mxCell>
        <mxCell id="sT-10" value="- CreateAITasksAsync(): Task&lt;IEnumerable&lt;string&gt;&gt; // 创建AI类型通道的测试任务" style="text;strokeColor=none;fillColor=none;align=left;verticalAlign=top;spacingLeft=4;spacingRight=4;overflow=hidden;rotatable=0;points=[[0,0.5],[1,0.5]];portConstraint=eastwest;whiteSpace=wrap;html=1;" parent="1" vertex="1">
          <mxGeometry x="9040" y="3780" width="360" height="20" as="geometry" />
        </mxCell>
        <mxCell id="sT-11" value="- SyncHardPointTestResult(): void // 同步硬点测试结果，更新通道状态" style="text;strokeColor=none;fillColor=none;align=left;verticalAlign=top;spacingLeft=4;spacingRight=4;overflow=hidden;rotatable=0;points=[[0,0.5],[1,0.5]];portConstraint=eastwest;whiteSpace=wrap;html=1;" parent="1" vertex="1">
          <mxGeometry x="9040" y="3800" width="360" height="20" as="geometry" />
        </mxCell>
        <mxCell id="i-s-1" value="实现" style="endArrow=block;endSize=16;endFill=0;html=1;rounded=0;entryX=0.596;entryY=1.012;entryDx=0;entryDy=0;exitX=0.627;exitY=0.04;exitDx=0;exitDy=0;exitPerimeter=0;entryPerimeter=0;" parent="1" source="7" target="6" edge="1">
          <mxGeometry width="160" relative="1" as="geometry">
            <mxPoint x="8310" y="4166.8" as="sourcePoint" />
            <mxPoint x="8470" y="4166.8" as="targetPoint" />
          </mxGeometry>
        </mxCell>
        <mxCell id="iC-1" value="&lt;p style=&quot;margin:0px;margin-top:4px;text-align:center;&quot;&gt;&lt;i&gt;&amp;lt;&amp;lt;Interface&amp;gt;&amp;gt;&lt;/i&gt;&lt;br&gt;&lt;b&gt;IChannelMappingService&lt;/b&gt;&lt;/p&gt;" style="verticalAlign=top;align=left;overflow=fill;fontSize=12;fontFamily=Helvetica;html=1;whiteSpace=wrap;" parent="1" vertex="1">
          <mxGeometry x="5330" y="3130" width="360" height="210" as="geometry" />
        </mxCell>
        <mxCell id="iC-2" value="+ GetAllChannelMappingsAsync(): Task&lt;IEnumerable&lt;ChannelMapping&gt;&gt; // 获取所有通道映射数据" style="text;strokeColor=none;fillColor=none;align=left;verticalAlign=top;spacingLeft=4;spacingRight=4;overflow=hidden;rotatable=0;points=[[0,0.5],[1,0.5]];portConstraint=eastwest;whiteSpace=wrap;html=1;" parent="1" vertex="1">
          <mxGeometry x="5330" y="3160" width="360" height="20" as="geometry" />
        </mxCell>
        <mxCell id="iC-3" value="+ GetChannelMappingsByBatchNameAsync(batchName): Task&lt;IEnumerable&lt;ChannelMapping&gt;&gt; // 根据批次名称获取通道映射" style="text;strokeColor=none;fillColor=none;align=left;verticalAlign=top;spacingLeft=4;spacingRight=4;overflow=hidden;rotatable=0;points=[[0,0.5],[1,0.5]];portConstraint=eastwest;whiteSpace=wrap;html=1;" parent="1" vertex="1">
          <mxGeometry x="5330" y="3180" width="360" height="30" as="geometry" />
        </mxCell>
        <mxCell id="iC-4" value="+ AddChannelMappingAsync(channelMapping): Task&lt;bool&gt; // 添加新的通道映射" style="text;strokeColor=none;fillColor=none;align=left;verticalAlign=top;spacingLeft=4;spacingRight=4;overflow=hidden;rotatable=0;points=[[0,0.5],[1,0.5]];portConstraint=eastwest;whiteSpace=wrap;html=1;" parent="1" vertex="1">
          <mxGeometry x="5330" y="3210" width="360" height="20" as="geometry" />
        </mxCell>
        <mxCell id="iC-5" value="+ AllocateChannelsTestAsync(allChannels): Task&lt;IEnumerable&lt;ChannelMapping&gt;&gt; // 分配通道测试关系，为通道分配测试资源" style="text;strokeColor=none;fillColor=none;align=left;verticalAlign=top;spacingLeft=4;spacingRight=4;overflow=hidden;rotatable=0;points=[[0,0.5],[1,0.5]];portConstraint=eastwest;whiteSpace=wrap;html=1;" parent="1" vertex="1">
          <mxGeometry x="5330" y="3230" width="360" height="30" as="geometry" />
        </mxCell>
        <mxCell id="iC-6" value="+ CreateChannelMappingsFromExcelAsync(excelData): Task&lt;IEnumerable&lt;ChannelMapping&gt;&gt; // 从Excel数据创建通道映射" style="text;strokeColor=none;fillColor=none;align=left;verticalAlign=top;spacingLeft=4;spacingRight=4;overflow=hidden;rotatable=0;points=[[0,0.5],[1,0.5]];portConstraint=eastwest;whiteSpace=wrap;html=1;" parent="1" vertex="1">
          <mxGeometry x="5330" y="3260" width="360" height="30" as="geometry" />
        </mxCell>
        <mxCell id="iC-7" value="+ ExtractBatchInfoAsync(allChannels): Task&lt;IEnumerable&lt;BatchInfo&gt;&gt; // 从通道集合中提取批次信息" style="text;strokeColor=none;fillColor=none;align=left;verticalAlign=top;spacingLeft=4;spacingRight=4;overflow=hidden;rotatable=0;points=[[0,0.5],[1,0.5]];portConstraint=eastwest;whiteSpace=wrap;html=1;" parent="1" vertex="1">
          <mxGeometry x="5330" y="3290" width="360" height="30" as="geometry" />
        </mxCell>
        <mxCell id="iC-8" value="+ GetAllBatchesAsync(): Task&lt;IEnumerable&lt;BatchInfo&gt;&gt; // 获取所有批次信息" style="text;strokeColor=none;fillColor=none;align=left;verticalAlign=top;spacingLeft=4;spacingRight=4;overflow=hidden;rotatable=0;points=[[0,0.5],[1,0.5]];portConstraint=eastwest;whiteSpace=wrap;html=1;" parent="1" vertex="1">
          <mxGeometry x="5330" y="3320" width="360" height="20" as="geometry" />
        </mxCell>
        <mxCell id="sC-1" value="&lt;p style=&quot;margin:0px;margin-top:4px;text-align:center;&quot;&gt;&lt;b&gt;ChannelMappingService&lt;/b&gt;&lt;/p&gt;" style="verticalAlign=top;align=left;overflow=fill;fontSize=12;fontFamily=Helvetica;html=1;whiteSpace=wrap;" parent="1" vertex="1">
          <mxGeometry x="5330" y="3500" width="360" height="210" as="geometry" />
        </mxCell>
        <mxCell id="sC-2" value="- _repository: IRepository" style="text;strokeColor=none;fillColor=none;align=left;verticalAlign=top;spacingLeft=4;spacingRight=4;overflow=hidden;rotatable=0;points=[[0,0.5],[1,0.5]];portConstraint=eastwest;whiteSpace=wrap;html=1;" parent="1" vertex="1">
          <mxGeometry x="5330" y="3530" width="360" height="20" as="geometry" />
        </mxCell>
        <mxCell id="sC-3" value="- _testPlcConfig: TestPlcConfig" style="text;strokeColor=none;fillColor=none;align=left;verticalAlign=top;spacingLeft=4;spacingRight=4;overflow=hidden;rotatable=0;points=[[0,0.5],[1,0.5]];portConstraint=eastwest;whiteSpace=wrap;html=1;" parent="1" vertex="1">
          <mxGeometry x="5330" y="3550" width="360" height="20" as="geometry" />
        </mxCell>
        <mxCell id="sC-4" value="+ GetAllChannelMappingsAsync(): Task&lt;IEnumerable&lt;ChannelMapping&gt;&gt;" style="text;strokeColor=none;fillColor=none;align=left;verticalAlign=top;spacingLeft=4;spacingRight=4;overflow=hidden;rotatable=0;points=[[0,0.5],[1,0.5]];portConstraint=eastwest;whiteSpace=wrap;html=1;" parent="1" vertex="1">
          <mxGeometry x="5330" y="3570" width="360" height="20" as="geometry" />
        </mxCell>
        <mxCell id="sC-5" value="+ AllocateChannelsAsync(): Task&lt;(...)&gt;" style="text;strokeColor=none;fillColor=none;align=left;verticalAlign=top;spacingLeft=4;spacingRight=4;overflow=hidden;rotatable=0;points=[[0,0.5],[1,0.5]];portConstraint=eastwest;whiteSpace=wrap;html=1;" parent="1" vertex="1">
          <mxGeometry x="5330" y="3590" width="360" height="20" as="geometry" />
        </mxCell>
        <mxCell id="sC-6" value="+ CreateChannelMappingsFromExcelAsync(): Task&lt;IEnumerable&lt;ChannelMapping&gt;&gt;" style="text;strokeColor=none;fillColor=none;align=left;verticalAlign=top;spacingLeft=4;spacingRight=4;overflow=hidden;rotatable=0;points=[[0,0.5],[1,0.5]];portConstraint=eastwest;whiteSpace=wrap;html=1;" parent="1" vertex="1">
          <mxGeometry x="5330" y="3610" width="360" height="30" as="geometry" />
        </mxCell>
        <mxCell id="sC-7" value="+ GetChannelsByType(): IEnumerable&lt;ChannelMapping&gt;" style="text;strokeColor=none;fillColor=none;align=left;verticalAlign=top;spacingLeft=4;spacingRight=4;overflow=hidden;rotatable=0;points=[[0,0.5],[1,0.5]];portConstraint=eastwest;whiteSpace=wrap;html=1;" parent="1" vertex="1">
          <mxGeometry x="5330" y="3640" width="360" height="20" as="geometry" />
        </mxCell>
        <mxCell id="sC-8" value="+ UpdateBatchStatusAsync(): Task&lt;IEnumerable&lt;BatchInfo&gt;&gt;" style="text;strokeColor=none;fillColor=none;align=left;verticalAlign=top;spacingLeft=4;spacingRight=4;overflow=hidden;rotatable=0;points=[[0,0.5],[1,0.5]];portConstraint=eastwest;whiteSpace=wrap;html=1;" parent="1" vertex="1">
          <mxGeometry x="5330" y="3660" width="360" height="20" as="geometry" />
        </mxCell>
        <mxCell id="sC-9" value="+ GetOrCreateBatchAsync(): Task&lt;BatchInfo&gt;" style="text;strokeColor=none;fillColor=none;align=left;verticalAlign=top;spacingLeft=4;spacingRight=4;overflow=hidden;rotatable=0;points=[[0,0.5],[1,0.5]];portConstraint=eastwest;whiteSpace=wrap;html=1;" parent="1" vertex="1">
          <mxGeometry x="5330" y="3680" width="360" height="20" as="geometry" />
        </mxCell>
        <mxCell id="i-s-2" value="实现" style="endArrow=block;endSize=16;endFill=0;html=1;rounded=0;exitX=0.5;exitY=0;exitDx=0;exitDy=0;" parent="1" source="sC-1" target="iC-1" edge="1">
          <mxGeometry width="160" relative="1" as="geometry">
            <mxPoint x="5690" y="2840" as="sourcePoint" />
            <mxPoint x="5850" y="2840" as="targetPoint" />
          </mxGeometry>
        </mxCell>
        <mxCell id="iP-1" value="&lt;p style=&quot;margin:0px;margin-top:4px;text-align:center;&quot;&gt;&lt;i&gt;&amp;lt;&amp;lt;Interface&amp;gt;&amp;gt;&lt;/i&gt;&lt;br&gt;&lt;b&gt;IPlcCommunication&lt;/b&gt;&lt;/p&gt;" style="verticalAlign=top;align=left;overflow=fill;fontSize=12;fontFamily=Helvetica;html=1;whiteSpace=wrap;" parent="1" vertex="1">
          <mxGeometry x="8085" y="3940" width="360" height="230" as="geometry" />
        </mxCell>
        <mxCell id="iP-2" value="+ ConnectAsync(): Task&lt;PlcCommunicationResult&gt; // 连接到PLC设备，建立通信链路" style="text;strokeColor=none;fillColor=none;align=left;verticalAlign=top;spacingLeft=4;spacingRight=4;overflow=hidden;rotatable=0;points=[[0,0.5],[1,0.5]];portConstraint=eastwest;whiteSpace=wrap;html=1;" parent="1" vertex="1">
          <mxGeometry x="8085" y="3970" width="360" height="20" as="geometry" />
        </mxCell>
        <mxCell id="iP-3" value="+ DisconnectAsync(): Task&lt;PlcCommunicationResult&gt; // 断开与PLC的连接，释放通信资源" style="text;strokeColor=none;fillColor=none;align=left;verticalAlign=top;spacingLeft=4;spacingRight=4;overflow=hidden;rotatable=0;points=[[0,0.5],[1,0.5]];portConstraint=eastwest;whiteSpace=wrap;html=1;" parent="1" vertex="1">
          <mxGeometry x="8085" y="3990" width="360" height="20" as="geometry" />
        </mxCell>
        <mxCell id="iP-4" value="+ ReadAnalogValueAsync(address): Task&lt;PlcCommunicationResult&lt;float&gt;&gt; // 读取模拟量值，返回浮点数值" style="text;strokeColor=none;fillColor=none;align=left;verticalAlign=top;spacingLeft=4;spacingRight=4;overflow=hidden;rotatable=0;points=[[0,0.5],[1,0.5]];portConstraint=eastwest;whiteSpace=wrap;html=1;" parent="1" vertex="1">
          <mxGeometry x="8085" y="4010" width="360" height="20" as="geometry" />
        </mxCell>
        <mxCell id="iP-5" value="+ WriteAnalogValueAsync(address, value): Task&lt;PlcCommunicationResult&gt; // 写入模拟量值到指定地址" style="text;strokeColor=none;fillColor=none;align=left;verticalAlign=top;spacingLeft=4;spacingRight=4;overflow=hidden;rotatable=0;points=[[0,0.5],[1,0.5]];portConstraint=eastwest;whiteSpace=wrap;html=1;" parent="1" vertex="1">
          <mxGeometry x="8085" y="4030" width="360" height="20" as="geometry" />
        </mxCell>
        <mxCell id="iP-6" value="+ ReadDigitalValueAsync(address): Task&lt;PlcCommunicationResult&lt;bool&gt;&gt; // 读取数字量值，返回布尔值" style="text;strokeColor=none;fillColor=none;align=left;verticalAlign=top;spacingLeft=4;spacingRight=4;overflow=hidden;rotatable=0;points=[[0,0.5],[1,0.5]];portConstraint=eastwest;whiteSpace=wrap;html=1;" parent="1" vertex="1">
          <mxGeometry x="8085" y="4050" width="360" height="20" as="geometry" />
        </mxCell>
        <mxCell id="iP-7" value="+ WriteDigitalValueAsync(address, value): Task&lt;PlcCommunicationResult&gt; // 写入数字量值到指定地址" style="text;strokeColor=none;fillColor=none;align=left;verticalAlign=top;spacingLeft=4;spacingRight=4;overflow=hidden;rotatable=0;points=[[0,0.5],[1,0.5]];portConstraint=eastwest;whiteSpace=wrap;html=1;" parent="1" vertex="1">
          <mxGeometry x="8085" y="4070" width="360" height="20" as="geometry" />
        </mxCell>
        <mxCell id="iP-8" value="+ IsConnected: bool // 获取PLC当前连接状态，是否已建立有效连接" style="text;strokeColor=none;fillColor=none;align=left;verticalAlign=top;spacingLeft=4;spacingRight=4;overflow=hidden;rotatable=0;points=[[0,0.5],[1,0.5]];portConstraint=eastwest;whiteSpace=wrap;html=1;" parent="1" vertex="1">
          <mxGeometry x="8085" y="4090" width="360" height="20" as="geometry" />
        </mxCell>
        <mxCell id="iP-9" value="+ GetPlcInfo(): PlcCommunicationResult&lt;string&gt; // 获取PLC设备信息，包括型号和版本" style="text;strokeColor=none;fillColor=none;align=left;verticalAlign=top;spacingLeft=4;spacingRight=4;overflow=hidden;rotatable=0;points=[[0,0.5],[1,0.5]];portConstraint=eastwest;whiteSpace=wrap;html=1;" parent="1" vertex="1">
          <mxGeometry x="8085" y="4110" width="360" height="20" as="geometry" />
        </mxCell>
        <mxCell id="sP-1" value="&lt;p style=&quot;margin:0px;margin-top:4px;text-align:center;&quot;&gt;&lt;b&gt;ModbusTcpCommunication&lt;/b&gt;&lt;/p&gt;" style="verticalAlign=top;align=left;overflow=fill;fontSize=12;fontFamily=Helvetica;html=1;whiteSpace=wrap;" parent="1" vertex="1">
          <mxGeometry x="8080" y="4225" width="370" height="110" as="geometry" />
        </mxCell>
        <mxCell id="sP-2" value="- _ipAddress: string" style="text;strokeColor=none;fillColor=none;align=left;verticalAlign=top;spacingLeft=4;spacingRight=4;overflow=hidden;rotatable=0;points=[[0,0.5],[1,0.5]];portConstraint=eastwest;whiteSpace=wrap;html=1;" parent="1" vertex="1">
          <mxGeometry x="8080" y="4255" width="370" height="20" as="geometry" />
        </mxCell>
        <mxCell id="sP-3" value="- _port: int" style="text;strokeColor=none;fillColor=none;align=left;verticalAlign=top;spacingLeft=4;spacingRight=4;overflow=hidden;rotatable=0;points=[[0,0.5],[1,0.5]];portConstraint=eastwest;whiteSpace=wrap;html=1;" parent="1" vertex="1">
          <mxGeometry x="8080" y="4275" width="370" height="20" as="geometry" />
        </mxCell>
        <mxCell id="sP-4" value="- _client: ModbusClient" style="text;strokeColor=none;fillColor=none;align=left;verticalAlign=top;spacingLeft=4;spacingRight=4;overflow=hidden;rotatable=0;points=[[0,0.5],[1,0.5]];portConstraint=eastwest;whiteSpace=wrap;html=1;" parent="1" vertex="1">
          <mxGeometry x="8080" y="4295" width="370" height="20" as="geometry" />
        </mxCell>
        <mxCell id="sP-5" value="+ 实现IPlcCommunication的所有方法" style="text;strokeColor=none;fillColor=none;align=left;verticalAlign=top;spacingLeft=4;spacingRight=4;overflow=hidden;rotatable=0;points=[[0,0.5],[1,0.5]];portConstraint=eastwest;whiteSpace=wrap;html=1;" parent="1" vertex="1">
          <mxGeometry x="8080" y="4315" width="370" height="20" as="geometry" />
        </mxCell>
        <mxCell id="i-s-3" value="实现" style="endArrow=block;endSize=16;endFill=0;html=1;rounded=0;exitX=0.5;exitY=0;exitDx=0;exitDy=0;entryX=0.5;entryY=1;entryDx=0;entryDy=0;" parent="1" source="sP-1" target="iP-1" edge="1">
          <mxGeometry width="160" relative="1" as="geometry">
            <mxPoint x="8245" y="4055" as="sourcePoint" />
            <mxPoint x="8405" y="4055" as="targetPoint" />
          </mxGeometry>
        </mxCell>
        <mxCell id="m-tt-3" value="使用" style="edgeStyle=orthogonalEdgeStyle;rounded=0;orthogonalLoop=1;jettySize=auto;html=1;exitX=-0.002;exitY=0.57;exitDx=0;exitDy=0;entryX=0.563;entryY=-0.004;entryDx=0;entryDy=0;entryPerimeter=0;exitPerimeter=0;" parent="1" source="7" target="iP-1" edge="1">
          <mxGeometry relative="1" as="geometry">
            <Array as="points">
              <mxPoint x="8970" y="3710" />
              <mxPoint x="8288" y="3710" />
            </Array>
            <mxPoint x="9630" y="3410" as="targetPoint" />
          </mxGeometry>
        </mxCell>
        <mxCell id="tt-1" value="&lt;p style=&quot;margin:0px;margin-top:4px;text-align:center;&quot;&gt;&lt;i&gt;&amp;lt;&amp;lt;Abstract&amp;gt;&amp;gt;&lt;/i&gt;&lt;br&gt;&lt;b&gt;TestTask&lt;/b&gt;&lt;/p&gt;" style="verticalAlign=top;align=left;overflow=fill;fontSize=12;fontFamily=Helvetica;html=1;whiteSpace=wrap;" parent="1" vertex="1">
          <mxGeometry x="10080" y="3620" width="320" height="170" as="geometry" />
        </mxCell>
        <mxCell id="tt-2" value="+ Id: string // 测试任务的唯一标识符" style="text;strokeColor=none;fillColor=none;align=left;verticalAlign=top;spacingLeft=4;spacingRight=4;overflow=hidden;rotatable=0;points=[[0,0.5],[1,0.5]];portConstraint=eastwest;whiteSpace=wrap;html=1;" parent="1" vertex="1">
          <mxGeometry x="10080" y="3650" width="320" height="20" as="geometry" />
        </mxCell>
        <mxCell id="tt-3" value="+ ChannelMapping: ChannelMapping // 当前任务关联的通道映射对象" style="text;strokeColor=none;fillColor=none;align=left;verticalAlign=top;spacingLeft=4;spacingRight=4;overflow=hidden;rotatable=0;points=[[0,0.5],[1,0.5]];portConstraint=eastwest;whiteSpace=wrap;html=1;" parent="1" vertex="1">
          <mxGeometry x="10080" y="3670" width="320" height="20" as="geometry" />
        </mxCell>
        <mxCell id="tt-4" value="+ Status: TestTaskStatus // 当前测试任务的状态（等待、运行、暂停、完成等）" style="text;strokeColor=none;fillColor=none;align=left;verticalAlign=top;spacingLeft=4;spacingRight=4;overflow=hidden;rotatable=0;points=[[0,0.5],[1,0.5]];portConstraint=eastwest;whiteSpace=wrap;html=1;" parent="1" vertex="1">
          <mxGeometry x="10080" y="3690" width="320" height="20" as="geometry" />
        </mxCell>
        <mxCell id="tt-5" value="+ Result: ChannelMapping // 测试结果，包含测试后的通道状态和数据" style="text;strokeColor=none;fillColor=none;align=left;verticalAlign=top;spacingLeft=4;spacingRight=4;overflow=hidden;rotatable=0;points=[[0,0.5],[1,0.5]];portConstraint=eastwest;whiteSpace=wrap;html=1;" parent="1" vertex="1">
          <mxGeometry x="10080" y="3710" width="320" height="20" as="geometry" />
        </mxCell>
        <mxCell id="tt-6" value="+ StartAsync(cancellationToken): Task // 启动测试任务，开始执行测试流程" style="text;strokeColor=none;fillColor=none;align=left;verticalAlign=top;spacingLeft=4;spacingRight=4;overflow=hidden;rotatable=0;points=[[0,0.5],[1,0.5]];portConstraint=eastwest;whiteSpace=wrap;html=1;" parent="1" vertex="1">
          <mxGeometry x="10080" y="3730" width="320" height="20" as="geometry" />
        </mxCell>
        <mxCell id="tt-7" value="+ StopAsync(): Task // 停止测试任务，终止当前测试流程" style="text;strokeColor=none;fillColor=none;align=left;verticalAlign=top;spacingLeft=4;spacingRight=4;overflow=hidden;rotatable=0;points=[[0,0.5],[1,0.5]];portConstraint=eastwest;whiteSpace=wrap;html=1;" parent="1" vertex="1">
          <mxGeometry x="10080" y="3750" width="320" height="20" as="geometry" />
        </mxCell>
        <mxCell id="tt-8" value="# ExecuteTestAsync(cancellationToken): Task // 执行具体测试逻辑，由子类实现" style="text;strokeColor=none;fillColor=none;align=left;verticalAlign=top;spacingLeft=4;spacingRight=4;overflow=hidden;rotatable=0;points=[[0,0.5],[1,0.5]];portConstraint=eastwest;whiteSpace=wrap;html=1;" parent="1" vertex="1">
          <mxGeometry x="10080" y="3770" width="320" height="20" as="geometry" />
        </mxCell>
        <mxCell id="m-tt-1" value="使用" style="edgeStyle=orthogonalEdgeStyle;rounded=0;orthogonalLoop=1;jettySize=auto;html=1;exitX=1;exitY=0.5;exitDx=0;exitDy=0;entryX=0;entryY=0.5;entryDx=0;entryDy=0;" parent="1" source="sT-1" target="tt-1" edge="1">
          <mxGeometry relative="1" as="geometry" />
        </mxCell>
        <mxCell id="MlwB1fIyMWAuD7k9EIIq-29" style="edgeStyle=orthogonalEdgeStyle;rounded=0;orthogonalLoop=1;jettySize=auto;html=1;entryX=1.004;entryY=0.508;entryDx=0;entryDy=0;entryPerimeter=0;exitX=0.518;exitY=0.125;exitDx=0;exitDy=0;exitPerimeter=0;" parent="1" source="11" target="10" edge="1">
          <mxGeometry relative="1" as="geometry">
            <Array as="points">
              <mxPoint x="9510" y="4245" />
              <mxPoint x="9510" y="4061" />
            </Array>
          </mxGeometry>
        </mxCell>
        <mxCell id="MlwB1fIyMWAuD7k9EIIq-30" value="映射" style="edgeLabel;html=1;align=center;verticalAlign=middle;resizable=0;points=[];" parent="MlwB1fIyMWAuD7k9EIIq-29" vertex="1" connectable="0">
          <mxGeometry x="0.2632" y="1" relative="1" as="geometry">
            <mxPoint as="offset" />
          </mxGeometry>
        </mxCell>
        <mxCell id="MlwB1fIyMWAuD7k9EIIq-31" style="edgeStyle=orthogonalEdgeStyle;rounded=0;orthogonalLoop=1;jettySize=auto;html=1;" parent="1" source="iC-1" edge="1">
          <mxGeometry relative="1" as="geometry">
            <Array as="points">
              <mxPoint x="6210" y="3235" />
              <mxPoint x="6210" y="3000" />
              <mxPoint x="6810" y="3000" />
              <mxPoint x="6810" y="2910" />
            </Array>
            <mxPoint x="6810" y="2910" as="targetPoint" />
          </mxGeometry>
        </mxCell>
        <mxCell id="BvOMLm0uWWLXNzVWoBdY-31" value="使用" style="edgeLabel;html=1;align=center;verticalAlign=middle;resizable=0;points=[];" parent="MlwB1fIyMWAuD7k9EIIq-31" vertex="1" connectable="0">
          <mxGeometry x="0.4393" y="1" relative="1" as="geometry">
            <mxPoint x="115" y="63" as="offset" />
          </mxGeometry>
        </mxCell>
        <mxCell id="iD-1" value="&lt;p style=&quot;margin:0px;margin-top:4px;text-align:center;&quot;&gt;&lt;i&gt;&amp;lt;&amp;lt;Interface&amp;gt;&amp;gt;&lt;/i&gt;&lt;br&gt;&lt;b&gt;IPointDataService&lt;/b&gt;&lt;/p&gt;" style="verticalAlign=top;align=left;overflow=fill;fontSize=12;fontFamily=Helvetica;html=1;whiteSpace=wrap;" parent="1" vertex="1">
          <mxGeometry x="4700" y="3165" width="360" height="140" as="geometry" />
        </mxCell>
        <mxCell id="iD-2" value="+ GetPointDataAsync(parameters): Task&lt;IEnumerable&lt;ExcelPointData&gt;&gt; // 获取点表数据，转换为点表对象列表" style="text;strokeColor=none;fillColor=none;align=left;verticalAlign=top;spacingLeft=4;spacingRight=4;overflow=hidden;rotatable=0;points=[[0,0.5],[1,0.5]];portConstraint=eastwest;whiteSpace=wrap;html=1;" parent="1" vertex="1">
          <mxGeometry x="4700" y="3205" width="360" height="20" as="geometry" />
        </mxCell>
        <mxCell id="iD-3" value="+ ValidatePointDataAsync(pointDataList): Task&lt;ValidationResult&gt; // 验证点表数据的有效性，检查数据格式和完整性" style="text;strokeColor=none;fillColor=none;align=left;verticalAlign=top;spacingLeft=4;spacingRight=4;overflow=hidden;rotatable=0;points=[[0,0.5],[1,0.5]];portConstraint=eastwest;whiteSpace=wrap;html=1;" parent="1" vertex="1">
          <mxGeometry x="4700" y="3225" width="360" height="20" as="geometry" />
        </mxCell>
        <mxCell id="iD-4" value="+ SavePointDataAsync(pointDataList): Task&lt;bool&gt; // 保存点表数据到存储系统" style="text;strokeColor=none;fillColor=none;align=left;verticalAlign=top;spacingLeft=4;spacingRight=4;overflow=hidden;rotatable=0;points=[[0,0.5],[1,0.5]];portConstraint=eastwest;whiteSpace=wrap;html=1;" parent="1" vertex="1">
          <mxGeometry x="4700" y="3245" width="360" height="20" as="geometry" />
        </mxCell>
        <mxCell id="iD-5" value="+ ImportPointConfigurationAsync(importAction): Task // 导入点表配置，完成后执行回调动作" style="text;strokeColor=none;fillColor=none;align=left;verticalAlign=top;spacingLeft=4;spacingRight=4;overflow=hidden;rotatable=0;points=[[0,0.5],[1,0.5]];portConstraint=eastwest;whiteSpace=wrap;html=1;" parent="1" vertex="1">
          <mxGeometry x="4700" y="3265" width="360" height="20" as="geometry" />
        </mxCell>
        <mxCell id="sD-1" value="&lt;p style=&quot;margin:0px;margin-top:4px;text-align:center;&quot;&gt;&lt;b&gt;ExcelPointDataService&lt;/b&gt;&lt;/p&gt;" style="verticalAlign=top;align=left;overflow=fill;fontSize=12;fontFamily=Helvetica;html=1;whiteSpace=wrap;" parent="1" vertex="1">
          <mxGeometry x="4480" y="3490" width="360" height="120" as="geometry" />
        </mxCell>
        <mxCell id="sD-2" value="- _repository: IRepository" style="text;strokeColor=none;fillColor=none;align=left;verticalAlign=top;spacingLeft=4;spacingRight=4;overflow=hidden;rotatable=0;points=[[0,0.5],[1,0.5]];portConstraint=eastwest;whiteSpace=wrap;html=1;" parent="1" vertex="1">
          <mxGeometry x="4480" y="3520" width="360" height="20" as="geometry" />
        </mxCell>
        <mxCell id="sD-3" value="- _messageService: IMessageService" style="text;strokeColor=none;fillColor=none;align=left;verticalAlign=top;spacingLeft=4;spacingRight=4;overflow=hidden;rotatable=0;points=[[0,0.5],[1,0.5]];portConstraint=eastwest;whiteSpace=wrap;html=1;" parent="1" vertex="1">
          <mxGeometry x="4480" y="3540" width="360" height="20" as="geometry" />
        </mxCell>
        <mxCell id="sD-4" value="+ 实现IPointDataService的所有方法" style="text;strokeColor=none;fillColor=none;align=left;verticalAlign=top;spacingLeft=4;spacingRight=4;overflow=hidden;rotatable=0;points=[[0,0.5],[1,0.5]];portConstraint=eastwest;whiteSpace=wrap;html=1;" parent="1" vertex="1">
          <mxGeometry x="4480" y="3560" width="360" height="20" as="geometry" />
        </mxCell>
        <mxCell id="sD-5" value="&lt;p style=&quot;margin:0px;margin-top:4px;text-align:center;&quot;&gt;&lt;b&gt;ApiPointDataService&lt;/b&gt;&lt;/p&gt;" style="verticalAlign=top;align=left;overflow=fill;fontSize=12;fontFamily=Helvetica;html=1;whiteSpace=wrap;" parent="1" vertex="1">
          <mxGeometry x="4860" y="3490" width="360" height="120" as="geometry" />
        </mxCell>
        <mxCell id="sD-6" value="- _apiClient: HttpClient" style="text;strokeColor=none;fillColor=none;align=left;verticalAlign=top;spacingLeft=4;spacingRight=4;overflow=hidden;rotatable=0;points=[[0,0.5],[1,0.5]];portConstraint=eastwest;whiteSpace=wrap;html=1;" parent="1" vertex="1">
          <mxGeometry x="4860" y="3520" width="360" height="20" as="geometry" />
        </mxCell>
        <mxCell id="sD-7" value="- _apiSettings: ApiSettings" style="text;strokeColor=none;fillColor=none;align=left;verticalAlign=top;spacingLeft=4;spacingRight=4;overflow=hidden;rotatable=0;points=[[0,0.5],[1,0.5]];portConstraint=eastwest;whiteSpace=wrap;html=1;" parent="1" vertex="1">
          <mxGeometry x="4860" y="3540" width="360" height="20" as="geometry" />
        </mxCell>
        <mxCell id="sD-8" value="+ 实现IPointDataService的所有方法" style="text;strokeColor=none;fillColor=none;align=left;verticalAlign=top;spacingLeft=4;spacingRight=4;overflow=hidden;rotatable=0;points=[[0,0.5],[1,0.5]];portConstraint=eastwest;whiteSpace=wrap;html=1;" parent="1" vertex="1">
          <mxGeometry x="4860" y="3560" width="360" height="20" as="geometry" />
        </mxCell>
        <mxCell id="i-s-4" value="实现" style="endArrow=block;endSize=16;endFill=0;html=1;rounded=0;exitX=0.5;exitY=0;exitDx=0;exitDy=0;entryX=0.047;entryY=1.006;entryDx=0;entryDy=0;entryPerimeter=0;" parent="1" source="sD-1" target="iD-1" edge="1">
          <mxGeometry width="160" relative="1" as="geometry">
            <mxPoint x="4880" y="3370" as="sourcePoint" />
            <mxPoint x="5040" y="3370" as="targetPoint" />
          </mxGeometry>
        </mxCell>
        <mxCell id="i-s-5" value="实现" style="endArrow=block;endSize=16;endFill=0;html=1;rounded=0;exitX=0.5;exitY=0;exitDx=0;exitDy=0;entryX=0.5;entryY=1;entryDx=0;entryDy=0;" parent="1" source="sD-5" target="iD-1" edge="1">
          <mxGeometry width="160" relative="1" as="geometry">
            <mxPoint x="4880" y="3370" as="sourcePoint" />
            <mxPoint x="5040" y="3370" as="targetPoint" />
            <Array as="points" />
          </mxGeometry>
        </mxCell>
        <mxCell id="m-d-1" value="使用" style="edgeStyle=orthogonalEdgeStyle;rounded=0;orthogonalLoop=1;jettySize=auto;html=1;exitX=0;exitY=0.5;exitDx=0;exitDy=0;entryX=1;entryY=0.5;entryDx=0;entryDy=0;" parent="1" source="iC-1" target="iD-1" edge="1">
          <mxGeometry relative="1" as="geometry" />
        </mxCell>
        <mxCell id="iR-1" value="&lt;p style=&quot;margin:0px;margin-top:4px;text-align:center;&quot;&gt;&lt;i&gt;&amp;lt;&amp;lt;Interface&amp;gt;&amp;gt;&lt;/i&gt;&lt;br&gt;&lt;b&gt;ITestRecordService&lt;/b&gt;&lt;/p&gt;" style="verticalAlign=top;align=left;overflow=fill;fontSize=12;fontFamily=Helvetica;html=1;whiteSpace=wrap;" parent="1" vertex="1">
          <mxGeometry x="6370" y="3205" width="360" height="160" as="geometry" />
        </mxCell>
        <mxCell id="iR-2" value="+ SaveTestRecordsAsync(channelMappings, testTag): Task&lt;bool&gt; // 保存多个通道的测试记录，使用指定的测试标识" style="text;strokeColor=none;fillColor=none;align=left;verticalAlign=top;spacingLeft=4;spacingRight=4;overflow=hidden;rotatable=0;points=[[0,0.5],[1,0.5]];portConstraint=eastwest;whiteSpace=wrap;html=1;" parent="1" vertex="1">
          <mxGeometry x="6370" y="3245" width="360" height="20" as="geometry" />
        </mxCell>
        <mxCell id="iR-3" value="+ SaveTestRecordAsync(channelMapping): Task&lt;bool&gt; // 保存单个通道的测试记录" style="text;strokeColor=none;fillColor=none;align=left;verticalAlign=top;spacingLeft=4;spacingRight=4;overflow=hidden;rotatable=0;points=[[0,0.5],[1,0.5]];portConstraint=eastwest;whiteSpace=wrap;html=1;" parent="1" vertex="1">
          <mxGeometry x="6370" y="3265" width="360" height="20" as="geometry" />
        </mxCell>
        <mxCell id="iR-4" value="+ RestoreTestRecordsAsync(testTag): Task&lt;List&lt;ChannelMapping&gt;&gt; // 恢复指定测试标识的测试记录" style="text;strokeColor=none;fillColor=none;align=left;verticalAlign=top;spacingLeft=4;spacingRight=4;overflow=hidden;rotatable=0;points=[[0,0.5],[1,0.5]];portConstraint=eastwest;whiteSpace=wrap;html=1;" parent="1" vertex="1">
          <mxGeometry x="6370" y="3285" width="360" height="20" as="geometry" />
        </mxCell>
        <mxCell id="iR-5" value="+ GetAllTestBatchesAsync(): Task&lt;List&lt;TestBatchInfo&gt;&gt; // 获取所有测试批次的信息" style="text;strokeColor=none;fillColor=none;align=left;verticalAlign=top;spacingLeft=4;spacingRight=4;overflow=hidden;rotatable=0;points=[[0,0.5],[1,0.5]];portConstraint=eastwest;whiteSpace=wrap;html=1;" parent="1" vertex="1">
          <mxGeometry x="6370" y="3305" width="360" height="20" as="geometry" />
        </mxCell>
        <mxCell id="iR-6" value="+ DeleteTestBatchAsync(testTag): Task&lt;bool&gt; // 删除指定测试标识的测试批次" style="text;strokeColor=none;fillColor=none;align=left;verticalAlign=top;spacingLeft=4;spacingRight=4;overflow=hidden;rotatable=0;points=[[0,0.5],[1,0.5]];portConstraint=eastwest;whiteSpace=wrap;html=1;" parent="1" vertex="1">
          <mxGeometry x="6370" y="3325" width="360" height="20" as="geometry" />
        </mxCell>
        <mxCell id="sR-1" value="&lt;p style=&quot;margin:0px;margin-top:4px;text-align:center;&quot;&gt;&lt;b&gt;TestRecordService&lt;/b&gt;&lt;/p&gt;" style="verticalAlign=top;align=left;overflow=fill;fontSize=12;fontFamily=Helvetica;html=1;whiteSpace=wrap;" parent="1" vertex="1">
          <mxGeometry x="6370" y="3425" width="360" height="120" as="geometry" />
        </mxCell>
        <mxCell id="sR-2" value="- _repository: IRepository" style="text;strokeColor=none;fillColor=none;align=left;verticalAlign=top;spacingLeft=4;spacingRight=4;overflow=hidden;rotatable=0;points=[[0,0.5],[1,0.5]];portConstraint=eastwest;whiteSpace=wrap;html=1;" parent="1" vertex="1">
          <mxGeometry x="6370" y="3455" width="360" height="20" as="geometry" />
        </mxCell>
        <mxCell id="sR-3" value="- _messageService: IMessageService" style="text;strokeColor=none;fillColor=none;align=left;verticalAlign=top;spacingLeft=4;spacingRight=4;overflow=hidden;rotatable=0;points=[[0,0.5],[1,0.5]];portConstraint=eastwest;whiteSpace=wrap;html=1;" parent="1" vertex="1">
          <mxGeometry x="6370" y="3475" width="360" height="20" as="geometry" />
        </mxCell>
        <mxCell id="sR-4" value="+ 实现ITestRecordService的所有方法" style="text;strokeColor=none;fillColor=none;align=left;verticalAlign=top;spacingLeft=4;spacingRight=4;overflow=hidden;rotatable=0;points=[[0,0.5],[1,0.5]];portConstraint=eastwest;whiteSpace=wrap;html=1;" parent="1" vertex="1">
          <mxGeometry x="6370" y="3495" width="360" height="20" as="geometry" />
        </mxCell>
        <mxCell id="i-s-6" value="实现" style="endArrow=block;endSize=16;endFill=0;html=1;rounded=0;exitX=0.5;exitY=0;exitDx=0;exitDy=0;entryX=0.5;entryY=1;entryDx=0;entryDy=0;" parent="1" source="sR-1" target="iR-1" edge="1">
          <mxGeometry width="160" relative="1" as="geometry">
            <mxPoint x="6550" y="3405" as="sourcePoint" />
            <mxPoint x="6710" y="3405" as="targetPoint" />
          </mxGeometry>
        </mxCell>
        <mxCell id="iE-1" value="&lt;p style=&quot;margin:0px;margin-top:4px;text-align:center;&quot;&gt;&lt;i&gt;&amp;lt;&amp;lt;Interface&amp;gt;&amp;gt;&lt;/i&gt;&lt;br&gt;&lt;b&gt;ITestResultExportService&lt;/b&gt;&lt;/p&gt;" style="verticalAlign=top;align=left;overflow=fill;fontSize=12;fontFamily=Helvetica;html=1;whiteSpace=wrap;" parent="1" vertex="1">
          <mxGeometry x="7100" y="3202" width="360" height="100" as="geometry" />
        </mxCell>
        <mxCell id="iE-2" value="+ ExportToExcelAsync(testResults, filePath): Task&lt;bool&gt; // 将测试结果导出到Excel文件" style="text;strokeColor=none;fillColor=none;align=left;verticalAlign=top;spacingLeft=4;spacingRight=4;overflow=hidden;rotatable=0;points=[[0,0.5],[1,0.5]];portConstraint=eastwest;whiteSpace=wrap;html=1;" parent="1" vertex="1">
          <mxGeometry x="7100" y="3242" width="360" height="20" as="geometry" />
        </mxCell>
        <mxCell id="iE-3" value="+ AreAllTestsPassed(testResults): bool // 检查是否所有测试都通过" style="text;strokeColor=none;fillColor=none;align=left;verticalAlign=top;spacingLeft=4;spacingRight=4;overflow=hidden;rotatable=0;points=[[0,0.5],[1,0.5]];portConstraint=eastwest;whiteSpace=wrap;html=1;" parent="1" vertex="1">
          <mxGeometry x="7100" y="3262" width="360" height="20" as="geometry" />
        </mxCell>
        <mxCell id="sE-1" value="&lt;p style=&quot;margin:0px;margin-top:4px;text-align:center;&quot;&gt;&lt;b&gt;TestResultExportService&lt;/b&gt;&lt;/p&gt;" style="verticalAlign=top;align=left;overflow=fill;fontSize=12;fontFamily=Helvetica;html=1;whiteSpace=wrap;" parent="1" vertex="1">
          <mxGeometry x="7100" y="3352" width="360" height="100" as="geometry" />
        </mxCell>
        <mxCell id="sE-2" value="- _messageService: IMessageService" style="text;strokeColor=none;fillColor=none;align=left;verticalAlign=top;spacingLeft=4;spacingRight=4;overflow=hidden;rotatable=0;points=[[0,0.5],[1,0.5]];portConstraint=eastwest;whiteSpace=wrap;html=1;" parent="1" vertex="1">
          <mxGeometry x="7100" y="3382" width="360" height="20" as="geometry" />
        </mxCell>
        <mxCell id="sE-3" value="+ 实现ITestResultExportService的所有方法" style="text;strokeColor=none;fillColor=none;align=left;verticalAlign=top;spacingLeft=4;spacingRight=4;overflow=hidden;rotatable=0;points=[[0,0.5],[1,0.5]];portConstraint=eastwest;whiteSpace=wrap;html=1;" parent="1" vertex="1">
          <mxGeometry x="7100" y="3402" width="360" height="20" as="geometry" />
        </mxCell>
        <mxCell id="i-s-7" value="实现" style="endArrow=block;endSize=16;endFill=0;html=1;rounded=0;exitX=0.5;exitY=0;exitDx=0;exitDy=0;entryX=0.5;entryY=1;entryDx=0;entryDy=0;" parent="1" source="sE-1" target="iE-1" edge="1">
          <mxGeometry width="160" relative="1" as="geometry">
            <mxPoint x="7280" y="3322" as="sourcePoint" />
            <mxPoint x="7440" y="3322" as="targetPoint" />
          </mxGeometry>
        </mxCell>
        <mxCell id="m-tt-4" value="使用" style="edgeStyle=orthogonalEdgeStyle;rounded=0;orthogonalLoop=1;jettySize=auto;html=1;exitX=0.5;exitY=0;exitDx=0;exitDy=0;entryX=0.5;entryY=1;entryDx=0;entryDy=0;" parent="1" source="sT-1" target="iR-1">
          <mxGeometry relative="1" as="geometry">
            <Array as="points">
              <mxPoint x="2900" y="2600" />
              <mxPoint x="2280" y="2600" />
            </Array>
          </mxGeometry>
        </mxCell>
        <mxCell id="tA-1" value="&lt;p style=&quot;margin:0px;margin-top:4px;text-align:center;&quot;&gt;&lt;b&gt;AITestTask&lt;/b&gt;&lt;/p&gt;" style="verticalAlign=top;align=left;overflow=fill;fontSize=12;fontFamily=Helvetica;html=1;whiteSpace=wrap;" parent="1" vertex="1">
          <mxGeometry x="10480" y="3550" width="320" height="100" as="geometry" />
        </mxCell>
        <mxCell id="tA-2" value="- _testPlcCommunication: IPlcCommunication // 测试PLC通信实例，用于发送测试信号" style="text;strokeColor=none;fillColor=none;align=left;verticalAlign=top;spacingLeft=4;spacingRight=4;overflow=hidden;rotatable=0;points=[[0,0.5],[1,0.5]];portConstraint=eastwest;whiteSpace=wrap;html=1;" parent="1" vertex="1">
          <mxGeometry x="10480" y="3580" width="320" height="20" as="geometry" />
        </mxCell>
        <mxCell id="tA-3" value="- _targetPlcCommunication: IPlcCommunication // 目标PLC通信实例，用于读取响应值" style="text;strokeColor=none;fillColor=none;align=left;verticalAlign=top;spacingLeft=4;spacingRight=4;overflow=hidden;rotatable=0;points=[[0,0.5],[1,0.5]];portConstraint=eastwest;whiteSpace=wrap;html=1;" parent="1" vertex="1">
          <mxGeometry x="10480" y="3600" width="320" height="20" as="geometry" />
        </mxCell>
        <mxCell id="tA-4" value="# ExecuteTestAsync(cancellationToken): Task" style="text;strokeColor=none;fillColor=none;align=left;verticalAlign=top;spacingLeft=4;spacingRight=4;overflow=hidden;rotatable=0;points=[[0,0.5],[1,0.5]];portConstraint=eastwest;whiteSpace=wrap;html=1;" parent="1" vertex="1">
          <mxGeometry x="10480" y="3620" width="320" height="20" as="geometry" />
        </mxCell>
        <mxCell id="tO-1" value="&lt;p style=&quot;margin:0px;margin-top:4px;text-align:center;&quot;&gt;&lt;b&gt;AOTestTask&lt;/b&gt;&lt;/p&gt;" style="verticalAlign=top;align=left;overflow=fill;fontSize=12;fontFamily=Helvetica;html=1;whiteSpace=wrap;" parent="1" vertex="1">
          <mxGeometry x="10480" y="3660" width="320" height="100" as="geometry" />
        </mxCell>
        <mxCell id="tO-2" value="- _testPlcCommunication: IPlcCommunication" style="text;strokeColor=none;fillColor=none;align=left;verticalAlign=top;spacingLeft=4;spacingRight=4;overflow=hidden;rotatable=0;points=[[0,0.5],[1,0.5]];portConstraint=eastwest;whiteSpace=wrap;html=1;" parent="1" vertex="1">
          <mxGeometry x="10480" y="3690" width="320" height="20" as="geometry" />
        </mxCell>
        <mxCell id="tO-3" value="- _targetPlcCommunication: IPlcCommunication" style="text;strokeColor=none;fillColor=none;align=left;verticalAlign=top;spacingLeft=4;spacingRight=4;overflow=hidden;rotatable=0;points=[[0,0.5],[1,0.5]];portConstraint=eastwest;whiteSpace=wrap;html=1;" parent="1" vertex="1">
          <mxGeometry x="10480" y="3710" width="320" height="20" as="geometry" />
        </mxCell>
        <mxCell id="tO-4" value="# ExecuteTestAsync(cancellationToken): Task" style="text;strokeColor=none;fillColor=none;align=left;verticalAlign=top;spacingLeft=4;spacingRight=4;overflow=hidden;rotatable=0;points=[[0,0.5],[1,0.5]];portConstraint=eastwest;whiteSpace=wrap;html=1;" parent="1" vertex="1">
          <mxGeometry x="10480" y="3730" width="320" height="20" as="geometry" />
        </mxCell>
        <mxCell id="tI-1" value="&lt;p style=&quot;margin:0px;margin-top:4px;text-align:center;&quot;&gt;&lt;b&gt;DITestTask&lt;/b&gt;&lt;/p&gt;" style="verticalAlign=top;align=left;overflow=fill;fontSize=12;fontFamily=Helvetica;html=1;whiteSpace=wrap;" parent="1" vertex="1">
          <mxGeometry x="10480" y="3770" width="320" height="100" as="geometry" />
        </mxCell>
        <mxCell id="tI-2" value="- _testPlcCommunication: IPlcCommunication" style="text;strokeColor=none;fillColor=none;align=left;verticalAlign=top;spacingLeft=4;spacingRight=4;overflow=hidden;rotatable=0;points=[[0,0.5],[1,0.5]];portConstraint=eastwest;whiteSpace=wrap;html=1;" parent="1" vertex="1">
          <mxGeometry x="10480" y="3800" width="320" height="20" as="geometry" />
        </mxCell>
        <mxCell id="tI-3" value="- _targetPlcCommunication: IPlcCommunication" style="text;strokeColor=none;fillColor=none;align=left;verticalAlign=top;spacingLeft=4;spacingRight=4;overflow=hidden;rotatable=0;points=[[0,0.5],[1,0.5]];portConstraint=eastwest;whiteSpace=wrap;html=1;" parent="1" vertex="1">
          <mxGeometry x="10480" y="3820" width="320" height="20" as="geometry" />
        </mxCell>
        <mxCell id="tI-4" value="# ExecuteTestAsync(cancellationToken): Task" style="text;strokeColor=none;fillColor=none;align=left;verticalAlign=top;spacingLeft=4;spacingRight=4;overflow=hidden;rotatable=0;points=[[0,0.5],[1,0.5]];portConstraint=eastwest;whiteSpace=wrap;html=1;" parent="1" vertex="1">
          <mxGeometry x="10480" y="3840" width="320" height="20" as="geometry" />
        </mxCell>
        <mxCell id="tD-1" value="&lt;p style=&quot;margin:0px;margin-top:4px;text-align:center;&quot;&gt;&lt;b&gt;DOTestTask&lt;/b&gt;&lt;/p&gt;" style="verticalAlign=top;align=left;overflow=fill;fontSize=12;fontFamily=Helvetica;html=1;whiteSpace=wrap;" parent="1" vertex="1">
          <mxGeometry x="10480" y="3880" width="320" height="100" as="geometry" />
        </mxCell>
        <mxCell id="tD-2" value="- _testPlcCommunication: IPlcCommunication" style="text;strokeColor=none;fillColor=none;align=left;verticalAlign=top;spacingLeft=4;spacingRight=4;overflow=hidden;rotatable=0;points=[[0,0.5],[1,0.5]];portConstraint=eastwest;whiteSpace=wrap;html=1;" parent="1" vertex="1">
          <mxGeometry x="10480" y="3910" width="320" height="20" as="geometry" />
        </mxCell>
        <mxCell id="tD-3" value="- _targetPlcCommunication: IPlcCommunication" style="text;strokeColor=none;fillColor=none;align=left;verticalAlign=top;spacingLeft=4;spacingRight=4;overflow=hidden;rotatable=0;points=[[0,0.5],[1,0.5]];portConstraint=eastwest;whiteSpace=wrap;html=1;" parent="1" vertex="1">
          <mxGeometry x="10480" y="3930" width="320" height="20" as="geometry" />
        </mxCell>
        <mxCell id="tD-4" value="# ExecuteTestAsync(cancellationToken): Task" style="text;strokeColor=none;fillColor=none;align=left;verticalAlign=top;spacingLeft=4;spacingRight=4;overflow=hidden;rotatable=0;points=[[0,0.5],[1,0.5]];portConstraint=eastwest;whiteSpace=wrap;html=1;" parent="1" vertex="1">
          <mxGeometry x="10480" y="3950" width="320" height="20" as="geometry" />
        </mxCell>
        <mxCell id="i-s-8" value="扩展" style="endArrow=block;endSize=16;endFill=0;html=1;rounded=0;exitX=0;exitY=0.5;exitDx=0;exitDy=0;entryX=1;entryY=0.25;entryDx=0;entryDy=0;" parent="1" source="tA-1" target="tt-1" edge="1">
          <mxGeometry width="160" relative="1" as="geometry">
            <mxPoint x="10600" y="3590" as="sourcePoint" />
            <mxPoint x="10470" y="3663" as="targetPoint" />
          </mxGeometry>
        </mxCell>
        <mxCell id="i-s-9" value="扩展" style="endArrow=block;endSize=16;endFill=0;html=1;rounded=0;exitX=0;exitY=0.5;exitDx=0;exitDy=0;entryX=1;entryY=0.5;entryDx=0;entryDy=0;" parent="1" source="tO-1" target="tt-1" edge="1">
          <mxGeometry width="160" relative="1" as="geometry">
            <mxPoint x="10600" y="3690" as="sourcePoint" />
            <mxPoint x="10460" y="3705" as="targetPoint" />
          </mxGeometry>
        </mxCell>
        <mxCell id="i-s-10" value="扩展" style="endArrow=block;endSize=16;endFill=0;html=1;rounded=0;exitX=0;exitY=0.5;exitDx=0;exitDy=0;entryX=1;entryY=0.75;entryDx=0;entryDy=0;" parent="1" source="tI-1" target="tt-1" edge="1">
          <mxGeometry width="160" relative="1" as="geometry">
            <mxPoint x="10570" y="3780" as="sourcePoint" />
            <mxPoint x="10410" y="3748" as="targetPoint" />
          </mxGeometry>
        </mxCell>
        <mxCell id="i-s-11" value="扩展" style="endArrow=block;endSize=16;endFill=0;html=1;rounded=0;exitX=0;exitY=0.5;exitDx=0;exitDy=0;entryX=1;entryY=1;entryDx=0;entryDy=0;" parent="1" source="tD-1" target="tt-1" edge="1">
          <mxGeometry width="160" relative="1" as="geometry">
            <mxPoint x="10600" y="3890" as="sourcePoint" />
            <mxPoint x="10410" y="3790" as="targetPoint" />
          </mxGeometry>
        </mxCell>
        <mxCell id="iM-1" value="&lt;p style=&quot;margin:0px;margin-top:4px;text-align:center;&quot;&gt;&lt;i&gt;&amp;lt;&amp;lt;Interface&amp;gt;&amp;gt;&lt;/i&gt;&lt;br&gt;&lt;b&gt;IMessageService&lt;/b&gt;&lt;/p&gt;" style="verticalAlign=top;align=left;overflow=fill;fontSize=12;fontFamily=Helvetica;html=1;whiteSpace=wrap;" parent="1" vertex="1">
          <mxGeometry x="8660" y="4080" width="360" height="100" as="geometry" />
        </mxCell>
        <mxCell id="iM-2" value="+ ShowMessage(message, title, buttons, icon): MessageResult // 显示消息对话框，支持自定义按钮和图标" style="text;strokeColor=none;fillColor=none;align=left;verticalAlign=top;spacingLeft=4;spacingRight=4;overflow=hidden;rotatable=0;points=[[0,0.5],[1,0.5]];portConstraint=eastwest;whiteSpace=wrap;html=1;" parent="1" vertex="1">
          <mxGeometry x="8660" y="4120" width="360" height="20" as="geometry" />
        </mxCell>
        <mxCell id="iM-3" value="+ ShowError(message, title): void // 显示错误消息对话框" style="text;strokeColor=none;fillColor=none;align=left;verticalAlign=top;spacingLeft=4;spacingRight=4;overflow=hidden;rotatable=0;points=[[0,0.5],[1,0.5]];portConstraint=eastwest;whiteSpace=wrap;html=1;" parent="1" vertex="1">
          <mxGeometry x="8660" y="4140" width="360" height="20" as="geometry" />
        </mxCell>
        <mxCell id="sM-1" value="&lt;p style=&quot;margin:0px;margin-top:4px;text-align:center;&quot;&gt;&lt;b&gt;MessageService&lt;/b&gt;&lt;/p&gt;" style="verticalAlign=top;align=left;overflow=fill;fontSize=12;fontFamily=Helvetica;html=1;whiteSpace=wrap;" parent="1" vertex="1">
          <mxGeometry x="8660" y="4240" width="360" height="80" as="geometry" />
        </mxCell>
        <mxCell id="sM-2" value="+ 实现IMessageService的所有方法" style="text;strokeColor=none;fillColor=none;align=left;verticalAlign=top;spacingLeft=4;spacingRight=4;overflow=hidden;rotatable=0;points=[[0,0.5],[1,0.5]];portConstraint=eastwest;whiteSpace=wrap;html=1;" parent="1" vertex="1">
          <mxGeometry x="8660" y="4270" width="360" height="20" as="geometry" />
        </mxCell>
        <mxCell id="i-s-12" value="实现" style="endArrow=block;endSize=16;endFill=0;html=1;rounded=0;exitX=0.5;exitY=0;exitDx=0;exitDy=0;entryX=0.5;entryY=1;entryDx=0;entryDy=0;" parent="1" source="sM-1" target="iM-1" edge="1">
          <mxGeometry width="160" relative="1" as="geometry">
            <mxPoint x="8840" y="4210" as="sourcePoint" />
            <mxPoint x="9000" y="4210" as="targetPoint" />
          </mxGeometry>
        </mxCell>
        <mxCell id="m-tt-6" value="使用" style="edgeStyle=orthogonalEdgeStyle;rounded=0;orthogonalLoop=1;jettySize=auto;html=1;entryX=0.5;entryY=0;entryDx=0;entryDy=0;" parent="1" target="iM-1" edge="1">
          <mxGeometry relative="1" as="geometry">
            <Array as="points">
              <mxPoint x="9120" y="3920" />
              <mxPoint x="8840" y="3920" />
            </Array>
            <mxPoint x="9120" y="3820" as="sourcePoint" />
          </mxGeometry>
        </mxCell>
        <mxCell id="BvOMLm0uWWLXNzVWoBdY-28" value="" style="group" parent="1" vertex="1" connectable="0">
          <mxGeometry x="5900" y="3760" width="2030" height="490" as="geometry" />
        </mxCell>
        <mxCell id="BvOMLm0uWWLXNzVWoBdY-27" value="公用部分" style="shape=folder;fontStyle=1;spacingTop=10;tabWidth=40;tabHeight=14;tabPosition=left;html=1;" parent="BvOMLm0uWWLXNzVWoBdY-28" vertex="1">
          <mxGeometry width="2030" height="490" as="geometry" />
        </mxCell>
        <mxCell id="12" value="Common" style="shape=folder;fontStyle=1;spacingTop=10;tabWidth=40;tabHeight=14;tabPosition=left;html=1;" parent="BvOMLm0uWWLXNzVWoBdY-28" vertex="1">
          <mxGeometry x="30" y="160" width="280" height="120" as="geometry" />
        </mxCell>
        <mxCell id="13" value="Events" style="shape=folder;fontStyle=1;spacingTop=10;tabWidth=40;tabHeight=14;tabPosition=left;html=1;" parent="BvOMLm0uWWLXNzVWoBdY-28" vertex="1">
          <mxGeometry x="370" y="160" width="280" height="120" as="geometry" />
        </mxCell>
        <mxCell id="14" value="Shared" style="shape=folder;fontStyle=1;spacingTop=10;tabWidth=40;tabHeight=14;tabPosition=left;html=1;" parent="BvOMLm0uWWLXNzVWoBdY-28" vertex="1">
          <mxGeometry x="1270" y="160" width="280" height="120" as="geometry" />
        </mxCell>
        <mxCell id="15" value="Optimizations" style="shape=folder;fontStyle=1;spacingTop=10;tabWidth=40;tabHeight=14;tabPosition=left;html=1;" parent="BvOMLm0uWWLXNzVWoBdY-28" vertex="1">
          <mxGeometry x="1640" y="160" width="280" height="120" as="geometry" />
        </mxCell>
        <mxCell id="5" value="Models" style="shape=folder;fontStyle=1;spacingTop=10;tabWidth=40;tabHeight=14;tabPosition=left;html=1;" parent="BvOMLm0uWWLXNzVWoBdY-28" vertex="1">
          <mxGeometry x="870" y="130" width="280" height="120" as="geometry" />
        </mxCell>
        <mxCell id="m-1" value="&lt;p style=&quot;margin:0px;margin-top:4px;text-align:center;&quot;&gt;&lt;b&gt;ChannelMapping&lt;/b&gt;&lt;/p&gt;" style="verticalAlign=top;align=left;overflow=fill;fontSize=12;fontFamily=Helvetica;html=1;whiteSpace=wrap;" parent="BvOMLm0uWWLXNzVWoBdY-28" vertex="1">
          <mxGeometry x="870" y="170" width="280" height="220" as="geometry" />
        </mxCell>
        <mxCell id="m-2" value="+ Id: string // 通道映射的唯一标识符" style="text;strokeColor=none;fillColor=none;align=left;verticalAlign=top;spacingLeft=4;spacingRight=4;overflow=hidden;rotatable=0;points=[[0,0.5],[1,0.5]];portConstraint=eastwest;whiteSpace=wrap;html=1;" parent="BvOMLm0uWWLXNzVWoBdY-28" vertex="1">
          <mxGeometry x="870" y="200" width="280" height="20" as="geometry" />
        </mxCell>
        <mxCell id="m-3" value="+ VariableName: string // 变量名称，关联到PLC中的变量" style="text;strokeColor=none;fillColor=none;align=left;verticalAlign=top;spacingLeft=4;spacingRight=4;overflow=hidden;rotatable=0;points=[[0,0.5],[1,0.5]];portConstraint=eastwest;whiteSpace=wrap;html=1;" parent="BvOMLm0uWWLXNzVWoBdY-28" vertex="1">
          <mxGeometry x="870" y="220" width="280" height="20" as="geometry" />
        </mxCell>
        <mxCell id="m-4" value="+ ModuleType: string // 模块类型，如AI、AO、DI、DO等" style="text;strokeColor=none;fillColor=none;align=left;verticalAlign=top;spacingLeft=4;spacingRight=4;overflow=hidden;rotatable=0;points=[[0,0.5],[1,0.5]];portConstraint=eastwest;whiteSpace=wrap;html=1;" parent="BvOMLm0uWWLXNzVWoBdY-28" vertex="1">
          <mxGeometry x="870" y="240" width="280" height="20" as="geometry" />
        </mxCell>
        <mxCell id="m-5" value="+ TestPLCChannelTag: string // 测试PLC中的通道标签" style="text;strokeColor=none;fillColor=none;align=left;verticalAlign=top;spacingLeft=4;spacingRight=4;overflow=hidden;rotatable=0;points=[[0,0.5],[1,0.5]];portConstraint=eastwest;whiteSpace=wrap;html=1;" parent="BvOMLm0uWWLXNzVWoBdY-28" vertex="1">
          <mxGeometry x="870" y="260" width="280" height="20" as="geometry" />
        </mxCell>
        <mxCell id="m-6" value="+ TestBatch: string // 所属测试批次标识" style="text;strokeColor=none;fillColor=none;align=left;verticalAlign=top;spacingLeft=4;spacingRight=4;overflow=hidden;rotatable=0;points=[[0,0.5],[1,0.5]];portConstraint=eastwest;whiteSpace=wrap;html=1;" parent="BvOMLm0uWWLXNzVWoBdY-28" vertex="1">
          <mxGeometry x="870" y="280" width="280" height="20" as="geometry" />
        </mxCell>
        <mxCell id="m-7" value="+ Status: string // 通道测试状态，如待测试、测试中、通过、失败等" style="text;strokeColor=none;fillColor=none;align=left;verticalAlign=top;spacingLeft=4;spacingRight=4;overflow=hidden;rotatable=0;points=[[0,0.5],[1,0.5]];portConstraint=eastwest;whiteSpace=wrap;html=1;" parent="BvOMLm0uWWLXNzVWoBdY-28" vertex="1">
          <mxGeometry x="870" y="300" width="280" height="20" as="geometry" />
        </mxCell>
        <mxCell id="m-8" value="+ Results: List&lt;TestPointResult&gt; // 测试点结果集合，包含各测试点的详细结果" style="text;strokeColor=none;fillColor=none;align=left;verticalAlign=top;spacingLeft=4;spacingRight=4;overflow=hidden;rotatable=0;points=[[0,0.5],[1,0.5]];portConstraint=eastwest;whiteSpace=wrap;html=1;" parent="BvOMLm0uWWLXNzVWoBdY-28" vertex="1">
          <mxGeometry x="870" y="320" width="280" height="20" as="geometry" />
        </mxCell>
        <mxCell id="BvOMLm0uWWLXNzVWoBdY-29" style="edgeStyle=orthogonalEdgeStyle;rounded=0;orthogonalLoop=1;jettySize=auto;html=1;exitX=0.5;exitY=0;exitDx=0;exitDy=0;entryX=0.32;entryY=1.019;entryDx=0;entryDy=0;entryPerimeter=0;" parent="1" source="iR-1" edge="1" target="8">
          <mxGeometry relative="1" as="geometry">
            <mxPoint x="6560" y="3280" as="sourcePoint" />
            <Array as="points">
              <mxPoint x="6550" y="3060" />
              <mxPoint x="6830" y="3060" />
              <mxPoint x="6830" y="2912" />
            </Array>
            <mxPoint x="6888" y="2910" as="targetPoint" />
          </mxGeometry>
        </mxCell>
        <mxCell id="BvOMLm0uWWLXNzVWoBdY-30" value="使用" style="edgeLabel;html=1;align=center;verticalAlign=middle;resizable=0;points=[];" parent="BvOMLm0uWWLXNzVWoBdY-29" vertex="1" connectable="0">
          <mxGeometry x="0.0994" y="-1" relative="1" as="geometry">
            <mxPoint x="400" y="1" as="offset" />
          </mxGeometry>
        </mxCell>
        <mxCell id="BvOMLm0uWWLXNzVWoBdY-32" style="edgeStyle=orthogonalEdgeStyle;rounded=0;orthogonalLoop=1;jettySize=auto;html=1;" parent="1" source="iE-1" edge="1">
          <mxGeometry relative="1" as="geometry">
            <Array as="points">
              <mxPoint x="7280" y="3060" />
              <mxPoint x="6920" y="3060" />
            </Array>
            <mxPoint x="6920" y="2910" as="targetPoint" />
          </mxGeometry>
        </mxCell>
        <mxCell id="BvOMLm0uWWLXNzVWoBdY-33" style="edgeStyle=orthogonalEdgeStyle;rounded=0;orthogonalLoop=1;jettySize=auto;html=1;entryX=0.393;entryY=1;entryDx=0;entryDy=0;entryPerimeter=0;" parent="1" target="8" edge="1">
          <mxGeometry relative="1" as="geometry">
            <mxPoint x="6910" y="3760" as="sourcePoint" />
          </mxGeometry>
        </mxCell>
        <mxCell id="JQ_EJN5hKAnXmPAcKlEt-213" value="&lt;font style=&quot;font-size: 18px;&quot;&gt;数据处理视图模型中的方法&lt;/font&gt;" style="swimlane;whiteSpace=wrap;html=1;startSize=28;" parent="1" vertex="1" collapsed="1">
          <mxGeometry x="6760" y="2840" width="290" height="58" as="geometry">
            <mxRectangle x="12450" y="3032" width="790" height="1758" as="alternateBounds" />
          </mxGeometry>
        </mxCell>
        <mxCell id="201" value="1、构造函数和初始化&#xa;&#xa;DataEditViewModel(IPointDataService, IChannelMappingService, ITestTaskManager, IEventAggregator, IPlcCommunication, IPlcCommunication, ITestResultExportService, ITestRecordService)：构造函数，初始化服务和依赖项 // 注入所有必要的服务依赖&#xa;Initialize()：初始化数据结构和命令，包括订阅事件、初始化集合和UI属性等 // 初始化视图模型，准备数据结构和命令" style="rounded=1;whiteSpace=wrap;html=1;fontSize=12;glass=0;strokeWidth=1;shadow=0;fillColor=#d5e8d4;strokeColor=#82b366;align=left;verticalAlign=top;spacingLeft=4;spacingRight=4;" parent="JQ_EJN5hKAnXmPAcKlEt-213" vertex="1">
          <mxGeometry x="100" y="64" width="550" height="100" as="geometry" />
        </mxCell>
        <mxCell id="202" value="2、数据加载和处理&#xa;&#xa;ImportConfig()：导入Excel点表配置文件，调用服务导入点表并处理数据 // 从Excel文件导入点表配置，解析并构建通道映射&#xa;ProcessImportedDataAsync(IEnumerable&lt;ExcelPointData&gt;)：处理导入的Excel数据，转换为通道映射对象 // 将原始Excel数据转换为系统可用的通道映射对象&#xa;RestoreConfig()：恢复配置，加载保存的配置数据 // 从存储中恢复之前保存的配置信息&#xa;LoadTestBatchesAsync()：加载测试批次数据 // 异步加载所有可用的测试批次信息&#xa;InitializeBatchData()：初始化批次数据结构 // 初始化批次相关的数据结构和UI绑定&#xa;UpdateBatchInfoAsync()：更新批次信息，同步最新状态 // 异步更新批次状态和进度信息&#xa;ExecuteSelectBatch()：执行批次选择操作 // 处理用户选择批次的操作&#xa;ConfirmBatchSelection()：确认批次选择 // 确认用户的批次选择并应用&#xa;CancelBatchSelection()：取消批次选择 // 取消批次选择操作&#xa;OnBatchSelected()：处理批次选择事件 // 响应批次选择事件，更新相关数据&#xa;RefreshBatchStatus()：刷新批次状态信息 // 刷新显示批次的最新状态" style="rounded=1;whiteSpace=wrap;html=1;fontSize=12;glass=0;strokeWidth=1;shadow=0;fillColor=#d5e8d4;strokeColor=#82b366;align=left;verticalAlign=top;spacingLeft=4;spacingRight=4;" parent="JQ_EJN5hKAnXmPAcKlEt-213" vertex="1">
          <mxGeometry x="100" y="196" width="550" height="210" as="geometry" />
        </mxCell>
        <mxCell id="203" value="3、通道管理&#xa;&#xa;UpdateCurrentChannels()：更新当前显示的通道列表 // 根据过滤条件更新当前显示的通道列表&#xa;ExecuteAllocateChannels()：执行通道分配操作 // 分配测试通道资源，准备测试执行&#xa;ClearChannelAllocationsAsync()：清空通道分配 // 异步清除所有通道分配信息&#xa;GetAIChannels()：获取所有AI类型的通道 // 过滤并返回所有模拟量输入类型的通道&#xa;GetAOChannels()：获取所有AO类型的通道 // 过滤并返回所有模拟量输出类型的通道&#xa;GetDIChannels()：获取所有DI类型的通道 // 过滤并返回所有数字量输入类型的通道&#xa;GetDOChannels()：获取所有DO类型的通道 // 过滤并返回所有数字量输出类型的通道" style="rounded=1;whiteSpace=wrap;html=1;fontSize=12;glass=0;strokeWidth=1;shadow=0;fillColor=#d5e8d4;strokeColor=#82b366;align=left;verticalAlign=top;spacingLeft=4;spacingRight=4;" parent="JQ_EJN5hKAnXmPAcKlEt-213" vertex="1">
          <mxGeometry x="100" y="444" width="550" height="140" as="geometry" />
        </mxCell>
        <mxCell id="204" value="4、测试结果管理&#xa;&#xa;LoadTestResults()：加载测试结果数据 // 加载并初始化测试结果数据&#xa;ApplyResultFilter()：应用结果过滤条件 // 根据筛选条件过滤测试结果显示&#xa;UpdatePointStatistics()：计算并更新点位统计数据 // 统计并更新测试点的通过/失败数量信息" style="rounded=1;whiteSpace=wrap;html=1;fontSize=12;glass=0;strokeWidth=1;shadow=0;fillColor=#d5e8d4;strokeColor=#82b366;align=left;verticalAlign=top;spacingLeft=4;spacingRight=4;" parent="JQ_EJN5hKAnXmPAcKlEt-213" vertex="1">
          <mxGeometry x="100" y="624" width="550" height="80" as="geometry" />
        </mxCell>
        <mxCell id="205" value="8、历史记录管理&#xa;&#xa;DeleteTestBatch()：删除测试批次 // 删除选定的测试批次及其所有记录&#xa;CloseHistoryRecords()：关闭历史记录窗口 // 关闭历史记录查看窗口&#xa;RestoreTestRecords()：恢复选中的历史测试记录 // 将选中的历史测试记录恢复为当前测试数据" style="rounded=1;whiteSpace=wrap;html=1;fontSize=12;glass=0;strokeWidth=1;shadow=0;fillColor=#d5e8d4;strokeColor=#82b366;align=left;verticalAlign=top;spacingLeft=4;spacingRight=4;" parent="JQ_EJN5hKAnXmPAcKlEt-213" vertex="1">
          <mxGeometry x="100" y="1614" width="550" height="80" as="geometry" />
        </mxCell>
        <mxCell id="206" value="5、测试执行和控制&#xa;&#xa;FinishWiring()：完成接线确认 // 确认完成硬件接线准备工作&#xa;ExecuteConfirmWiringComplete()：执行完成接线确认操作 // 执行接线完成确认流程，准备启动测试&#xa;CanExecuteConfirmWiringComplete()：检查是否可以执行接线确认 // 验证当前状态是否允许执行接线确认&#xa;StartTest()：开始测试，启动通道硬点自动测试 // 启动所有通道的自动测试流程&#xa;Retest(ChannelMapping)：重新测试指定通道 // 对指定的失败通道进行重新测试&#xa;RefreshTestQueue()：刷新测试队列 // 更新测试队列中的任务状态&#xa;OnTestResultsUpdated()：处理测试结果更新事件 // 处理测试结果变更事件，更新UI显示&#xa;UpdateTestResultStatus(ChannelMapping)：更新通道测试结果状态 // 更新指定通道的测试结果和状态&#xa;CheckAllSubTestsCompleted(ChannelMapping)：检查通道的所有子测试是否完成 // 检查一个通道的所有子测试项是否都已完成&#xa;CheckAndCompleteAllTests()：检查并完成所有测试 // 检查是否所有测试都已完成，如果是则执行完成逻辑&#xa;SaveSingleChannelTestRecordAsync(ChannelMapping)：保存单个通道的测试记录 // 异步保存指定通道的测试记录&#xa;ExportTestResults()：导出测试结果 // 将测试结果导出到Excel文件&#xa;CanExportTestResults()：判断是否可以导出测试结果 // 检查当前状态是否允许导出测试结果" style="rounded=1;whiteSpace=wrap;html=1;fontSize=12;glass=0;strokeWidth=1;shadow=0;fillColor=#d5e8d4;strokeColor=#82b366;align=left;verticalAlign=top;spacingLeft=4;spacingRight=4;" parent="JQ_EJN5hKAnXmPAcKlEt-213" vertex="1">
          <mxGeometry x="100" y="734" width="550" height="240" as="geometry" />
        </mxCell>
        <mxCell id="207" value="6、手动测试控制(AI)&#xa;&#xa;OpenAIManualTest(ChannelMapping)：打开AI手动测试界面 // 打开模拟量输入手动测试界面&#xa;ExecuteCloseAIManualTest()：关闭AI手动测试界面 // 关闭模拟量输入手动测试界面&#xa;ExecuteSendAITestValue(ChannelMapping)：发送AI测试值 // 向测试PLC发送指定的模拟量输入测试值&#xa;ExecuteConfirmAIValue(ChannelMapping)：确认AI测试值 // 确认模拟量输入测试值检测结果&#xa;ExecuteSendAIHighAlarm(ChannelMapping)：发送AI高报警测试 // 发送模拟量高报警测试信号&#xa;ExecuteSendAIHighHighAlarm(ChannelMapping)：发送AI高高报警测试 // 发送模拟量高高报警测试信号&#xa;ExecuteResetAIHighAlarm(ChannelMapping)：重置AI高报警 // 重置模拟量高报警状态&#xa;ExecuteConfirmAIHighAlarm(ChannelMapping)：确认AI高报警测试 // 确认模拟量高报警测试结果&#xa;ExecuteSendAILowAlarm(ChannelMapping)：发送AI低报警测试 // 发送模拟量低报警测试信号&#xa;ExecuteSendAILowLowAlarm(ChannelMapping)：发送AI低低报警测试 // 发送模拟量低低报警测试信号&#xa;ExecuteResetAILowAlarm(ChannelMapping)：重置AI低报警 // 重置模拟量低报警状态&#xa;ExecuteConfirmAILowAlarm(ChannelMapping)：确认AI低报警测试 // 确认模拟量低报警测试结果&#xa;ExecuteConfirmAIAlarmValueSet(ChannelMapping)：确认AI报警值设置 // 确认模拟量报警值设置是否正确&#xa;ExecuteSendAIMaintenance(ChannelMapping)：发送AI维护状态测试 // 发送模拟量维护状态测试信号&#xa;ExecuteResetAIMaintenance(ChannelMapping)：重置AI维护状态 // 重置模拟量维护状态&#xa;ExecuteConfirmAIMaintenance(ChannelMapping)：确认AI维护状态测试 // 确认模拟量维护状态测试结果" style="rounded=1;whiteSpace=wrap;html=1;fontSize=12;glass=0;strokeWidth=1;shadow=0;fillColor=#d5e8d4;strokeColor=#82b366;align=left;verticalAlign=top;spacingLeft=4;spacingRight=4;" parent="JQ_EJN5hKAnXmPAcKlEt-213" vertex="1">
          <mxGeometry x="100" y="1014" width="550" height="285" as="geometry" />
        </mxCell>
        <mxCell id="208" value="7、手动测试控制(DI/DO/AO)&#xa;&#xa;OpenDIManualTest(ChannelMapping)：打开DI手动测试界面 // 打开数字量输入手动测试界面&#xa;ExecuteCloseDIManualTest()：关闭DI手动测试界面 // 关闭数字量输入手动测试界面&#xa;ExecuteSendDITest(ChannelMapping)：发送DI测试信号 // 向测试PLC发送数字量输入测试信号&#xa;ExecuteResetDI(ChannelMapping)：重置DI状态 // 重置数字量输入通道状态&#xa;ExecuteConfirmDI(ChannelMapping)：确认DI测试结果 // 确认数字量输入测试结果&#xa;OpenDOManualTest(ChannelMapping)：打开DO手动测试界面 // 打开数字量输出手动测试界面&#xa;ExecuteCloseDOManualTest()：关闭DO手动测试界面 // 关闭数字量输出手动测试界面&#xa;ExecuteStartDOMonitor(ChannelMapping)：开始DO监测 // 开始数字量输出监测操作&#xa;ExecuteConfirmDO(ChannelMapping)：确认DO测试结果 // 确认数字量输出测试结果&#xa;OpenAOManualTest(ChannelMapping)：打开AO手动测试界面 // 打开模拟量输出手动测试界面&#xa;ExecuteCloseAOManualTest()：关闭AO手动测试界面 // 关闭模拟量输出手动测试界面&#xa;ExecuteStartAOMonitor(ChannelMapping)：开始AO监测 // 开始模拟量输出监测操作&#xa;ExecuteSaveAO0/25/50/75/100(ChannelMapping)：保存各个百分比点位的AO测试值 // 保存不同百分比位置的模拟量输出测试值&#xa;ExecuteConfirmAO(ChannelMapping)：确认AO测试结果 // 确认模拟量输出测试结果" style="rounded=1;whiteSpace=wrap;html=1;fontSize=12;glass=0;strokeWidth=1;shadow=0;fillColor=#d5e8d4;strokeColor=#82b366;align=left;verticalAlign=top;spacingLeft=4;spacingRight=4;" parent="JQ_EJN5hKAnXmPAcKlEt-213" vertex="1">
          <mxGeometry x="100" y="1334" width="550" height="250" as="geometry" />
        </mxCell>
      </root>
    </mxGraphModel>
  </diagram>
</mxfile>
